<svg xmlns="http://www.w3.org/2000/svg" width="1200" height="800" viewBox="0 0 1200 800">
  <defs>
    <radialGradient id="g2" cx="50%" cy="40%" r="75%">
      <stop offset="0%" stop-color="#243a2c"/>
      <stop offset="60%" stop-color="#0d1320"/>
      <stop offset="100%" stop-color="#04060a"/>
    </radialGradient>
    <linearGradient id="sheen2" x1="0" y1="0" x2="1" y2="1">
      <stop offset="0%" stop-color="#e8c86b" stop-opacity="0.35"/>
      <stop offset="45%" stop-color="#d4af37" stop-opacity="0.05"/>
      <stop offset="100%" stop-color="#04060a" stop-opacity="0"/>
    </linearGradient>
  </defs>
  <rect width="1200" height="800" fill="#04060a"/>
  <rect width="1200" height="800" fill="url(#g2)"/>
  <circle cx="568" cy="584" r="251" fill="url(#g2)" opacity="0.17"/><circle cx="1087" cy="200" r="151" fill="url(#g2)" opacity="0.23"/><circle cx="1158" cy="0" r="123" fill="url(#g2)" opacity="0.24"/><circle cx="716" cy="168" r="194" fill="url(#g2)" opacity="0.18"/><circle cx="167" cy="549" r="298" fill="url(#g2)" opacity="0.12"/>
  <rect width="1200" height="800" fill="url(#sheen2)"/>
  <line x1="0" y1="14" x2="1200" y2="-26" stroke="rgba(212,175,96,0.06)" stroke-width="1"/><line x1="0" y1="71" x2="1200" y2="31" stroke="rgba(212,175,96,0.06)" stroke-width="1"/><line x1="0" y1="128" x2="1200" y2="88" stroke="rgba(212,175,96,0.06)" stroke-width="1"/><line x1="0" y1="185" x2="1200" y2="145" stroke="rgba(212,175,96,0.06)" stroke-width="1"/><line x1="0" y1="243" x2="1200" y2="203" stroke="rgba(212,175,96,0.06)" stroke-width="1"/><line x1="0" y1="300" x2="1200" y2="260" stroke="rgba(212,175,96,0.06)" stroke-width="1"/><line x1="0" y1="357" x2="1200" y2="317" stroke="rgba(212,175,96,0.06)" stroke-width="1"/><line x1="0" y1="414" x2="1200" y2="374" stroke="rgba(212,175,96,0.06)" stroke-width="1"/><line x1="0" y1="471" x2="1200" y2="431" stroke="rgba(212,175,96,0.06)" stroke-width="1"/><line x1="0" y1="528" x2="1200" y2="488" stroke="rgba(212,175,96,0.06)" stroke-width="1"/><line x1="0" y1="585" x2="1200" y2="545" stroke="rgba(212,175,96,0.06)" stroke-width="1"/><line x1="0" y1="643" x2="1200" y2="603" stroke="rgba(212,175,96,0.06)" stroke-width="1"/><line x1="0" y1="700" x2="1200" y2="660" stroke="rgba(212,175,96,0.06)" stroke-width="1"/><line x1="0" y1="757" x2="1200" y2="717" stroke="rgba(212,175,96,0.06)" stroke-width="1"/>
  <text x="600" y="756" text-anchor="middle" font-family="monospace" font-size="26" letter-spacing="6" fill="rgba(241,244,249,0.55)">STEADY · 안정형</text>
</svg>