<svg xmlns="http://www.w3.org/2000/svg" width="800" height="1000" viewBox="0 0 800 1000">
  <defs>
    <radialGradient id="g7" cx="50%" cy="40%" r="75%">
      <stop offset="0%" stop-color="#3a2c0e"/>
      <stop offset="60%" stop-color="#0d1320"/>
      <stop offset="100%" stop-color="#04060a"/>
    </radialGradient>
    <linearGradient id="sheen7" x1="0" y1="0" x2="1" y2="1">
      <stop offset="0%" stop-color="#e8c86b" stop-opacity="0.35"/>
      <stop offset="45%" stop-color="#d4af37" stop-opacity="0.05"/>
      <stop offset="100%" stop-color="#04060a" stop-opacity="0"/>
    </linearGradient>
  </defs>
  <rect width="800" height="1000" fill="#04060a"/>
  <rect width="800" height="1000" fill="url(#g7)"/>
  <circle cx="326" cy="786" r="265" fill="url(#g7)" opacity="0.16"/><circle cx="691" cy="310" r="161" fill="url(#g7)" opacity="0.22"/><circle cx="788" cy="8" r="121" fill="url(#g7)" opacity="0.24"/><circle cx="528" cy="159" r="180" fill="url(#g7)" opacity="0.19"/><circle cx="151" cy="623" r="286" fill="url(#g7)" opacity="0.13"/>
  <rect width="800" height="1000" fill="url(#sheen7)"/>
  <line x1="0" y1="19" x2="800" y2="-21" stroke="rgba(212,175,96,0.06)" stroke-width="1"/><line x1="0" y1="90" x2="800" y2="50" stroke="rgba(212,175,96,0.06)" stroke-width="1"/><line x1="0" y1="162" x2="800" y2="122" stroke="rgba(212,175,96,0.06)" stroke-width="1"/><line x1="0" y1="233" x2="800" y2="193" stroke="rgba(212,175,96,0.06)" stroke-width="1"/><line x1="0" y1="305" x2="800" y2="265" stroke="rgba(212,175,96,0.06)" stroke-width="1"/><line x1="0" y1="376" x2="800" y2="336" stroke="rgba(212,175,96,0.06)" stroke-width="1"/><line x1="0" y1="448" x2="800" y2="408" stroke="rgba(212,175,96,0.06)" stroke-width="1"/><line x1="0" y1="519" x2="800" y2="479" stroke="rgba(212,175,96,0.06)" stroke-width="1"/><line x1="0" y1="590" x2="800" y2="550" stroke="rgba(212,175,96,0.06)" stroke-width="1"/><line x1="0" y1="662" x2="800" y2="622" stroke="rgba(212,175,96,0.06)" stroke-width="1"/><line x1="0" y1="733" x2="800" y2="693" stroke="rgba(212,175,96,0.06)" stroke-width="1"/><line x1="0" y1="805" x2="800" y2="765" stroke="rgba(212,175,96,0.06)" stroke-width="1"/><line x1="0" y1="876" x2="800" y2="836" stroke="rgba(212,175,96,0.06)" stroke-width="1"/><line x1="0" y1="948" x2="800" y2="908" stroke="rgba(212,175,96,0.06)" stroke-width="1"/>
  
</svg>